<svg xmlns="http://www.w3.org/2000/svg" viewBox="0 0 712.39 421.68"><defs><style>.cls-1{font-size:92px;}.cls-1,.cls-5{fill:#da7c27;}.cls-1,.cls-3{font-family:Roboto-Regular, Roboto;}.cls-2,.cls-9{fill:#fff;}.cls-2{stroke:#231f20;}.cls-10,.cls-2,.cls-8,.cls-9{stroke-miterlimit:10;}.cls-3{font-size:17px;fill:#231f20;}.cls-4{letter-spacing:-0.02em;}.cls-5{font-size:70px;letter-spacing:0em;}.cls-6{font-size:64px;letter-spacing:0em;}.cls-7{letter-spacing:0em;}.cls-8{fill:none;stroke:#808285;}.cls-10,.cls-8,.cls-9{stroke-width:0.75px;}.cls-9{stroke:#a7a9ac;}.cls-10{fill:#fdfefe;stroke:#fff;}.cls-11{letter-spacing:-0.01em;}.cls-12{letter-spacing:-0.01em;}</style></defs><title>Asset 32</title><g id="Layer_2" data-name="Layer 2"><g id="Layer_1-2" data-name="Layer 1"><text class="cls-1" transform="matrix(0.99, 0, 0, 1, 277.92, 396.75)">88%</text><rect class="cls-2" x="260.41" y="0.5" width="155.18" height="155.18"/><rect class="cls-2" x="438.82" y="0.5" width="243.66" height="243.66"/><text class="cls-3" transform="translate(602.93 23.77) scale(0.99 1)"><tspan class="cls-4">V</tspan><tspan x="10.43" y="0">anguard</tspan></text><text class="cls-3" transform="translate(325.1 23.77) scale(0.99 1)">BlackRock</text><rect class="cls-2" x="355.65" y="113.82" width="119.87" height="119.87"/><text class="cls-3" transform="translate(387.23 133.07) scale(0.99 1)">StateStreet</text><text class="cls-3" transform="translate(238.81 264.84) scale(0.99 1)"><tspan xml:space="preserve">Collective  </tspan><tspan class="cls-5" x="82.25" y="0">81%</tspan><tspan class="cls-6" x="212.13" y="0"> </tspan><tspan class="cls-7" x="227.98" y="0">share of index fund assets</tspan></text><line class="cls-8" x1="224.6" y1="275.72" x2="712.01" y2="275.72"/><line class="cls-8" x1="224.6" y1="275.72" x2="224.6" y2="239.42"/><line class="cls-8" x1="712.01" y1="275.72" x2="712.01" y2="239.42"/><polygon class="cls-9" points="498.43 275.5 470.94 275.5 484.68 299.31 498.43 275.5"/><polygon class="cls-10" points="498.43 273.53 470.94 273.53 484.68 297.34 498.43 273.53"/><text class="cls-3" transform="translate(0 364.7) scale(0.98 1)">Combined, h<tspan class="cls-11" x="94.21" y="0">a</tspan><tspan x="103.33" y="0">ve majority cont</tspan><tspan class="cls-12" x="223.89" y="0">r</tspan><tspan x="229.48" y="0">ol </tspan><tspan class="cls-11" x="247.5" y="0">o</tspan><tspan x="257.07" y="0" xml:space="preserve">ver   </tspan></text><text class="cls-3" transform="translate(446.06 364.69) scale(0.99 1)">of the 500 largest U.S companies</text><text></text></g></g></svg>