<svg id="Layer_1" data-name="Layer 1" xmlns="http://www.w3.org/2000/svg" viewBox="0 0 424.62 382.28"><defs><style>.cls-1{fill:#e6e6e6;opacity:0.8;}.cls-2,.cls-3,.cls-42{fill:none;}.cls-2{stroke:#ccc;}.cls-2,.cls-3,.cls-4,.cls-42,.cls-5{stroke-miterlimit:10;stroke-width:0.25px;}.cls-3{stroke:#333;}.cls-12,.cls-4{fill:#ffb23b;}.cls-4,.cls-5{stroke:#000;}.cls-5{fill:#f15a24;}.cls-6,.cls-7{font-size:6px;}.cls-16,.cls-31,.cls-32,.cls-35,.cls-6,.cls-7{font-family:Montserrat-Light, Montserrat;font-weight:300;}.cls-44,.cls-7{letter-spacing:-0.01em;}.cls-8{letter-spacing:0em;}.cls-9{letter-spacing:-0.01em;}.cls-10{letter-spacing:-0.02em;}.cls-11{letter-spacing:-0.02em;}.cls-12{font-size:14.66px;font-family:Montserrat-Medium, Montserrat;font-weight:500;}.cls-13{letter-spacing:-0.02em;}.cls-14{letter-spacing:0em;}.cls-15{letter-spacing:-0.02em;}.cls-16,.cls-31{font-size:10px;}.cls-16{fill:#333;}.cls-17{letter-spacing:-0.01em;}.cls-18{letter-spacing:-0.01em;}.cls-19{letter-spacing:-0.01em;}.cls-20{letter-spacing:0em;}.cls-21{letter-spacing:0em;}.cls-22{letter-spacing:-0.01em;}.cls-23{letter-spacing:0em;}.cls-24{letter-spacing:0.08em;}.cls-25{letter-spacing:-0.01em;}.cls-26{letter-spacing:0em;}.cls-27{letter-spacing:-0.01em;}.cls-28{letter-spacing:0.01em;}.cls-29{letter-spacing:-0.01em;}.cls-30{letter-spacing:-0.02em;}.cls-32,.cls-35{font-size:13.67px;}.cls-33{letter-spacing:-0.02em;}.cls-34{letter-spacing:-0.01em;}.cls-35{letter-spacing:-0.02em;}.cls-36{letter-spacing:0em;}.cls-37{letter-spacing:-0.01em;}.cls-38{letter-spacing:-0.02em;}.cls-39{letter-spacing:-0.02em;}.cls-40{letter-spacing:-0.02em;}.cls-41{letter-spacing:0em;}.cls-42{stroke:#ed1c24;stroke-dasharray:3 1;}.cls-43{letter-spacing:-0.01em;}.cls-45{letter-spacing:0em;}</style></defs><title>card2content</title><path class="cls-1" d="M380.64,366H321.46L276.11,328l-10.27-58.29,29.59-51.26,55.62-20.24,55.62,20.24,29.59,51.26L426,328Zm-47.17-33h35.16l26.94-22.61,6.11-34.63L384.1,245.32l-33.05-12-33.05,12-17.58,30.45,6.11,34.63Z" transform="translate(-32.87 -70.72)"/><polygon class="cls-2" points="318.17 143.42 273.14 159.81 249.17 201.32 257.5 248.52 294.21 279.32 342.14 279.32 378.85 248.52 387.17 201.32 363.21 159.81 318.17 143.42"/><polygon class="cls-3" points="252.65 136.72 318.22 133.21 374.43 148.43 383.8 203.47 397.86 260.86 351.01 305.36 292.46 281.93 243.28 257.34 228.05 198.79 252.65 136.72"/><circle class="cls-4" cx="318.22" cy="133.21" r="2.93"/><circle class="cls-4" cx="374.43" cy="148.43" r="2.93"/><circle class="cls-4" cx="383.8" cy="203.47" r="2.93"/><circle class="cls-4" cx="293.63" cy="281.93" r="2.93"/><circle class="cls-4" cx="243.28" cy="257.34" r="2.93"/><circle class="cls-5" cx="252.64" cy="136.72" r="2.93"/><circle class="cls-5" cx="228.05" cy="198.79" r="2.93"/><circle class="cls-5" cx="397.86" cy="260.86" r="2.93"/><circle class="cls-5" cx="351.01" cy="305.36" r="2.93"/><text class="cls-6" transform="translate(311.59 117.74)">RBC</text><text class="cls-7" transform="translate(379.59 140.74)">W<tspan class="cls-8" x="6.5" y="0">BC</tspan></text><text class="cls-6" transform="translate(410.59 200.74)">HGB</text><text class="cls-6" transform="translate(404.59 268.74)">HT</text><text class="cls-6" transform="translate(350.59 320.74)">M<tspan class="cls-9" x="5.74" y="0">C</tspan><tspan x="9.98" y="0">V</tspan></text><text class="cls-6" transform="translate(273.59 310.74)">MCH</text><text class="cls-6" transform="translate(216.59 270.74)">MCHC</text><text class="cls-6" transform="translate(193.59 200.74)">Pla<tspan class="cls-10" x="9.35" y="0">t</tspan><tspan x="11.63" y="0">elets</tspan></text><text class="cls-6" transform="translate(233.59 130.74)">R<tspan class="cls-11" x="4.32" y="0">D</tspan><tspan x="9.15" y="0">W</tspan></text><text class="cls-12" transform="translate(0.59 12.46)"><tspan class="cls-13">C</tspan><tspan class="cls-14" x="10.27" y="0">omple</tspan><tspan class="cls-15" x="58.13" y="0">t</tspan><tspan x="63.93" y="0">e Blood </tspan><tspan class="cls-13" x="124.57" y="0">C</tspan><tspan x="134.85" y="0">ount</tspan></text><text class="cls-16" transform="translate(0.59 30.46)">H<tspan class="cls-17" x="8.14" y="0">o</tspan><tspan x="14.19" y="0">w </tspan><tspan class="cls-18" x="25.38" y="0">f</tspan><tspan x="28.56" y="0">ar a</tspan><tspan class="cls-19" x="46.73" y="0">r</tspan><tspan class="cls-20" x="50.53" y="0">e t</tspan><tspan class="cls-21" x="63.05" y="0">h</tspan><tspan x="69.79" y="0">e </tspan><tspan class="cls-19" x="78.33" y="0">r</tspan><tspan x="82.13" y="0">esu</tspan><tspan class="cls-22" x="99.57" y="0">l</tspan><tspan class="cls-23" x="102.11" y="0">ts </tspan><tspan class="cls-24" x="113.44" y="0">f</tspan><tspan class="cls-25" x="117.52" y="0">r</tspan><tspan class="cls-26" x="121.32" y="0">om t</tspan><tspan class="cls-21" x="144.71" y="0">h</tspan><tspan x="151.45" y="0">e per</tspan><tspan class="cls-27" x="176.65" y="0">f</tspan><tspan x="179.84" y="0">e</tspan><tspan class="cls-28" x="185.81" y="0">c</tspan><tspan x="191.42" y="0">t </tspan><tspan class="cls-21" x="197.97" y="0">n</tspan><tspan x="204.71" y="0">o</tspan><tspan class="cls-29" x="210.91" y="0">r</tspan><tspan x="214.76" y="0">mal poin</tspan><tspan class="cls-30" x="258.7" y="0">t</tspan><tspan x="262.49" y="0">?</tspan></text><rect class="cls-1" x="68.13" y="71.28" width="82" height="33"/><rect class="cls-1" x="68.13" y="104.28" width="74" height="32"/><rect class="cls-1" x="68.13" y="263.49" width="74" height="32.53"/><rect class="cls-1" x="68.13" y="167.49" width="68" height="32.53"/><rect class="cls-1" x="68.13" y="295.22" width="68" height="32.53"/><rect class="cls-1" x="68.13" y="200.02" width="61" height="31.74"/><rect class="cls-1" x="68.13" y="326.75" width="55" height="32.53"/><rect class="cls-1" x="68.13" y="231.75" width="94" height="31.74"/><rect class="cls-1" x="68.13" y="135.28" width="96" height="32"/><rect class="cls-3" x="0.13" y="71.28" width="166" height="288"/><text class="cls-31" transform="translate(10.24 92.54)">RBC</text><text class="cls-32" transform="translate(102.23 93.62)">89%</text><text class="cls-32" transform="translate(102.23 125.62)">80%</text><text class="cls-32" transform="translate(102.23 156.62)">99%</text><text class="cls-32" transform="translate(102.23 188.62)"><tspan class="cls-33">7</tspan><tspan class="cls-34" x="7.68" y="0">5</tspan><tspan x="15.17" y="0">%</tspan></text><text class="cls-35" transform="translate(102.23 221.62)">7<tspan class="cls-36" x="7.67" y="0">0%</tspan></text><text class="cls-32" transform="translate(102.23 253.62)">9<tspan class="cls-37" x="8.23" y="0">8</tspan><tspan class="cls-36" x="16.73" y="0">%</tspan></text><text class="cls-32" transform="translate(102.23 284.62)">80%</text><text class="cls-32" transform="translate(102.23 315.62)"><tspan class="cls-33">7</tspan><tspan class="cls-34" x="7.68" y="0">5</tspan><tspan x="15.17" y="0">%</tspan></text><text class="cls-32" transform="translate(102.23 348.62)">6<tspan class="cls-38" x="8.23" y="0">6</tspan><tspan x="16.18" y="0">%</tspan></text><line class="cls-3" x1="68.13" y1="71.28" x2="68.13" y2="359.28"/><line class="cls-3" x1="0.13" y1="103.91" x2="166.13" y2="103.91"/><text class="cls-31" transform="translate(10.24 124.54)"><tspan class="cls-17">W</tspan><tspan x="10.83" y="0">BC</tspan></text><line class="cls-3" x1="0.13" y1="135.82" x2="166.13" y2="135.82"/><text class="cls-31" transform="translate(10.24 155.54)">HGB</text><line class="cls-3" x1="0.13" y1="167.73" x2="166.13" y2="167.73"/><text class="cls-31" transform="translate(10.24 187.54)">HT</text><line class="cls-3" x1="0.13" y1="199.64" x2="166.13" y2="199.64"/><text class="cls-31" transform="translate(10.24 218.54)">M<tspan class="cls-29" x="9.56" y="0">C</tspan><tspan x="16.63" y="0">V</tspan></text><line class="cls-3" x1="0.13" y1="231.55" x2="166.13" y2="231.55"/><text class="cls-31" transform="translate(10.24 251.54)">MCH</text><line class="cls-3" x1="0.13" y1="263.46" x2="166.13" y2="263.46"/><text class="cls-31" transform="translate(10.24 283.54)">MCHC</text><line class="cls-3" x1="0.13" y1="295.37" x2="166.13" y2="295.37"/><text class="cls-31" transform="translate(10.24 315.54)">Pla<tspan class="cls-39" x="15.59" y="0">t</tspan><tspan x="19.38" y="0">elets</tspan></text><line class="cls-3" x1="0.13" y1="327.28" x2="166.13" y2="327.28"/><text class="cls-31" transform="translate(10.24 348.54)">R<tspan class="cls-40" x="7.2" y="0">D</tspan><tspan class="cls-41" x="15.25" y="0">W</tspan></text><line class="cls-42" x1="142.13" y1="55.28" x2="142.13" y2="382.28"/><text class="cls-6" transform="translate(68.59 63.74)">0</text><text class="cls-6" transform="translate(68.59 376.74)">Needs Imp<tspan class="cls-43" x="32.71" y="0">r</tspan><tspan class="cls-44" x="34.99" y="0">ov</tspan><tspan class="cls-8" x="41.7" y="0">e</tspan><tspan class="cls-45" x="45.28" y="0">m</tspan><tspan x="51.67" y="0">ent</tspan></text><text class="cls-6" transform="translate(156.59 63.74)">100</text><polyline class="cls-3" points="159.35 370.51 153.65 376.21 150.8 373.36"/></svg>