<?xml version="1.0" encoding="utf-8"?>
<!-- Generator: Adobe Illustrator 23.0.2, SVG Export Plug-In . SVG Version: 6.00 Build 0)  -->
<svg version="1.1" id="Layer_1" xmlns="http://www.w3.org/2000/svg" xmlns:xlink="http://www.w3.org/1999/xlink" x="0px" y="0px"
	 viewBox="0 0 100 100" style="enable-background:new 0 0 100 100;" xml:space="preserve">
<style type="text/css">
	.st0{fill:none;stroke:#232323;stroke-width:0.75;stroke-linecap:round;stroke-miterlimit:10;}
	.st1{fill:none;stroke:#232323;stroke-linecap:round;stroke-miterlimit:10;}
	.st2{fill:none;stroke:#232323;stroke-width:2;stroke-linecap:round;stroke-miterlimit:10;}
	.st3{fill:#FFFFFF;stroke:#232323;stroke-linecap:round;stroke-miterlimit:10;}
</style>
<line class="st0" x1="117.7" y1="-3.8" x2="147" y2="23.5"/>
<line class="st0" x1="116.7" y1="-20.5" x2="116.7" y2="-5.9"/>
<line class="st0" x1="130.5" y1="-32.1" x2="117.6" y2="-22.8"/>
<line class="st0" x1="146.9" y1="-23.7" x2="133.3" y2="-32.3"/>
<line class="st0" x1="119.9" y1="-11.9" x2="117.4" y2="-6.3"/>
<line class="st0" x1="117.3" y1="-20.5" x2="119.9" y2="-14.2"/>
<line class="st0" x1="129.5" y1="-27.6" x2="117.7" y2="-22.4"/>
<line class="st0" x1="131.6" y1="-31.5" x2="131" y2="-29.1"/>
<path class="st0" d="M129.8,7.5"/>
<line class="st0" x1="137.8" y1="-11.3" x2="146.9" y2="-23.7"/>
<line class="st0" x1="135.7" y1="2.3" x2="148.6" y2="-14.4"/>
<polyline class="st0" points="121.9,-12.8 137.8,-11.3 135.7,2.3 "/>
<line class="st0" x1="129.9" y1="-26.8" x2="121.3" y2="-14.2"/>
<line class="st0" x1="146.9" y1="-23.7" x2="132" y2="-27.9"/>
<line class="st0" x1="147" y1="23.5" x2="147.5" y2="6.9"/>
<line class="st0" x1="135.7" y1="2.3" x2="147" y2="23.5"/>
<line class="st0" x1="135.7" y1="2.3" x2="147.5" y2="6.9"/>
<path class="st0" d="M160-2.3"/>
<path class="st0" d="M147.5,6.9l29.1-11.4c0.4-0.2,0.7-0.6,0.7-1v-16.2c0-0.3-0.2-0.7-0.5-0.9l-14.2-10.2c-0.4-0.3-0.8-0.3-1.2,0
	l-13.9,8.7c-0.4,0.2-0.6,0.7-0.5,1.1l1.6,8.5"/>
<path class="st0" d="M148.6-14.4"/>
<path class="st0" d="M119.7-13.4"/>
<polyline class="st0" points="131.4,-26.9 137.8,-11.3 148.6,-14.4 "/>
<circle class="st0" cx="131.8" cy="-32.7" r="1.2"/>
<circle class="st0" cx="130.7" cy="-27.9" r="1.2"/>
<circle class="st0" cx="116.7" cy="-21.7" r="1.2"/>
<circle class="st0" cx="120.3" cy="-13" r="1.2"/>
<circle class="st0" cx="117.1" cy="-4.7" r="1.2"/>
<line class="st1" x1="143" y1="107.6" x2="149.8" y2="114.4"/>
<line class="st1" x1="140.6" y1="92.1" x2="140.6" y2="101.8"/>
<line class="st1" x1="149.1" y1="81.1" x2="143" y2="87.1"/>
<line class="st1" x1="163.7" y1="78.6" x2="154.7" y2="78.6"/>
<line class="st1" x1="176.1" y1="87.5" x2="169.1" y2="80.5"/>
<path class="st1" d="M177.2,106.1c0.6-0.6,0.9-1.4,0.9-2.3V92.3"/>
<path class="st1" d="M146.1,110.7"/>
<path class="st1" d="M175.4,85.9l6.5-6.4c0.6-0.6,1.4-0.9,2.3-0.9H197c0.9,0,1.7,0.3,2.3,0.9l9.1,9.1c0.6,0.6,0.9,1.4,0.9,2.3v12.9
	c0,0.9-0.3,1.7-0.9,2.3l-9.8,10.1l-22.6,23c-0.6,0.6-1.5,0.6-2,0l-16.4-16.7"/>
<path class="st1" d="M171.8,90.9v12.9c0,0.9,0.3,1.7,0.9,2.3l9.1,9.1c0.6,0.6,1.4,0.9,2.3,0.9h9.9"/>
<path class="st1" d="M152.5,19.5"/>
<path class="st1" d="M152.5,19.5"/>
<g>
	<path class="st2" d="M225.4-10c0.5-0.5,0.8-1.2,0.8-1.9v-11.1c0-0.3-0.1-0.6-0.4-0.9l-8.2-8.2c-0.2-0.2-0.5-0.4-0.9-0.4h-11.7
		c-0.3,0-0.6,0.1-0.9,0.4l-8.2,8.2c-0.2,0.2-0.4,0.5-0.4,0.9v11.1c0,0.7,0.3,1.4,0.8,1.9l27.2,27.7"/>
	<path class="st2" d="M223.6,17.7L250.8-10c0.5-0.5,0.8-1.2,0.8-1.9v-11.1c0-0.3-0.1-0.6-0.4-0.9L243-32c-0.2-0.2-0.5-0.4-0.9-0.4
		h-11.7c-0.3,0-0.6,0.1-0.9,0.4l-3.6,3.6"/>
	<path class="st2" d="M223.6-26l-1.8,1.8c-0.5,0.5-0.8,1.2-0.8,1.9v10.5c0,0.7,0.3,1.4,0.8,1.9l7.4,7.4c0.5,0.5,1.2,0.8,1.9,0.8h7"
		/>
</g>
<path class="st1" d="M191.7,46.9l5.1-5.1c0.2-0.2,0.3-0.5,0.3-0.7v-7.2c0-0.3-0.1-0.5-0.3-0.7l-5.1-5.1c-0.2-0.2-0.5-0.3-0.7-0.3
	h-7.2c-0.3,0-0.5,0.1-0.7,0.3l-5.1,5.1c-0.2,0.2-0.3,0.5-0.3,0.7v7.2c0,0.3,0.1,0.5,0.3,0.7l5.1,5.1c0.2,0.2,0.5,0.3,0.7,0.3h7.2
	C191.2,47.3,191.5,47.1,191.7,46.9"/>
<path class="st1" d="M210.4,44.4l-13.9,14.2c-0.5,0.6-1.4,0.6-2,0l-7.1-7.2"/>
<path class="st1" d="M207.8,46.9l5.1-5.1c0.2-0.2,0.3-0.5,0.3-0.7v-7.2c0-0.3-0.1-0.5-0.3-0.7l-5.1-5.1c-0.2-0.2-0.5-0.3-0.7-0.3
	h-7.2c-0.3,0-0.5,0.1-0.7,0.3l-3.7,3.7"/>
<circle class="st1" cx="151.6" cy="78.9" r="2.5"/>
<circle class="st1" cx="166.9" cy="78.9" r="2.5"/>
<circle class="st1" cx="141" cy="89.6" r="2.5"/>
<circle class="st1" cx="177.5" cy="89.6" r="2.5"/>
<circle class="st1" cx="141" cy="105" r="2.5"/>
<circle class="st1" cx="151.6" cy="116.1" r="2.5"/>
<line class="st1" x1="81.3" y1="-33.8" x2="81.3" y2="-44.4"/>
<line class="st1" x1="65.2" y1="-22.3" x2="77.1" y2="-29.1"/>
<line class="st1" x1="49" y1="-31.6" x2="61" y2="-24.7"/>
<line class="st1" x1="49" y1="-44.4" x2="49" y2="-35.6"/>
<line class="st1" x1="61.5" y1="-57.4" x2="52.8" y2="-52.4"/>
<line class="st1" x1="81.3" y1="-50.2" x2="68.9" y2="-57.4"/>
<circle class="st3" cx="49" cy="-49.9" r="2.1"/>
<circle class="st3" cx="49" cy="-31.6" r="2.1"/>
<circle class="st3" cx="81.3" cy="-31.6" r="2.1"/>
<circle class="st3" cx="81.3" cy="-49.9" r="2.1"/>
<circle class="st3" cx="65.2" cy="-59.6" r="2.1"/>
<circle class="st3" cx="65.2" cy="-22.5" r="2.1"/>
<line class="st1" x1="-4.4" y1="-27.6" x2="22.1" y2="-27.6"/>
<line class="st1" x1="-12.6" y1="-52.8" x2="-4.4" y2="-27.6"/>
<line class="st1" x1="8.8" y1="-68.4" x2="-12.6" y2="-52.8"/>
<line class="st1" x1="22.1" y1="-27.6" x2="27.6" y2="-44.5"/>
<circle class="st3" cx="8.8" cy="-67.8" r="3.5"/>
<circle class="st3" cx="-12.6" cy="-53" r="3.5"/>
<circle class="st3" cx="22.1" cy="-27.7" r="3.5"/>
<circle class="st3" cx="-4.5" cy="-27.7" r="3.5"/>
</svg>
