<?xml version="1.0" encoding="utf-8"?>
<!-- Generator: Adobe Illustrator 23.0.2, SVG Export Plug-In . SVG Version: 6.00 Build 0)  -->
<svg version="1.1" id="Layer_1" xmlns="http://www.w3.org/2000/svg" xmlns:xlink="http://www.w3.org/1999/xlink" x="0px" y="0px"
	 viewBox="0 0 100 100" style="enable-background:new 0 0 100 100;" xml:space="preserve">
<style type="text/css">
	.st0{fill:none;stroke:#232323;stroke-width:2;stroke-linecap:round;stroke-miterlimit:10;}
	.st1{fill:#232323;}
</style>
<path class="st0" d="M184,34.6c0-16.5-13.9-29.8-30.7-28.8c-14.8,0.9-26.7,13.4-27,28.2c-0.2,8.5,3.4,16.2,9.1,21.6
	c3.6,3.4,5.5,8.1,5.5,13.1v3.5c0,4.7,3.8,8.5,8.5,8.5h11.3c4.7,0,8.5-3.8,8.5-8.5v-3.5c0-5.1,2.1-9.8,5.8-13.3
	C180.6,50.1,184,42.7,184,34.6z"/>
<line class="st0" x1="155.2" y1="73.2" x2="155.2" y2="39.4"/>
<line class="st0" x1="146.1" y1="39.4" x2="164.3" y2="39.4"/>
<line class="st0" x1="146.1" y1="86.9" x2="164.3" y2="86.9"/>
<line class="st0" x1="146.1" y1="92" x2="164.3" y2="92"/>
<circle class="st0" cx="50" cy="50" r="33.4"/>
<line class="st0" x1="50" y1="34.1" x2="50" y2="58.6"/>
<circle class="st1" cx="50" cy="66.1" r="1.6"/>
</svg>
